<?xml version="1.0" encoding="UTF-8"?> <svg xmlns="http://www.w3.org/2000/svg" viewBox="0 0 15.91 18.91"><defs><style>.cls-1{fill:#acacac;}</style></defs><g id="Layer_2" data-name="Layer 2"><g id="Layer_1-2" data-name="Layer 1"><rect class="cls-1" x="0.02" y="18.03" width="15.87" height="0.88"></rect><path class="cls-1" d="M14.85,12a.43.43,0,0,1-.43.43h-5A.44.44,0,0,1,9,12V1.83a.43.43,0,0,1,.44-.43h5a.43.43,0,0,1,.43.43ZM4.49,1.83a.43.43,0,0,1,.43-.43h2.4a.43.43,0,0,1,.43.43V12a.43.43,0,0,1-.43.43H4.92A.43.43,0,0,1,4.49,12ZM2.7,11,1,9.45a.43.43,0,0,1-.14-.31V1.83a.43.43,0,0,1,.43-.43H3a.43.43,0,0,1,.43.43v8.88A.44.44,0,0,1,2.7,11M15.91.49A.49.49,0,0,0,15.42,0H.49A.49.49,0,0,0,0,.49V9.71a.47.47,0,0,0,.15.35L3.6,13.38v1.39a.49.49,0,0,0,.49.49H15.42a.49.49,0,0,0,.49-.49V.49Z"></path></g></g></svg> 